<svg xmlns="http://www.w3.org/2000/svg" width="600" height="373.25" viewBox="0 0 600 373.25"><path d="M529.83 373.25H164.499c-38.754 0-70.17-31.416-70.17-70.17v-2.904c0-38.753 31.416-70.17 70.17-70.17H529.83c38.753 0 70.169 31.417 70.169 70.17v2.904c0 38.754-31.416 70.17-70.17 70.17z" fill="#1ca0da"/><path d="M0 177.018h54.82V0H0v177.018zm347.164 1.326h54.82V1.326h-54.82v177.018zm151.748-40.06v-35.942h86.208v-3.961l.266-.012.003-30.71-.269 1.14v-4.121h-86.217V37.48h91.461V1.326H441.95l.671 177.018h150.017v-40.06h-93.726zM202.76 108.656L174.042.9h-73.079L99.57 178.344h46.566V54.657l35.072 123.687h43.106l31.945-123.687v123.687h49.958V.554H230.75l-27.99 108.102z"/><path d="M227.533 265.11c-2.129-4.351-4.94-7.735-8.43-10.152-3.492-2.415-7.82-4.054-12.986-4.914-3.683-.67-9.016-1.004-15.999-1.004h-39.674v105.177h13.918v-42.76h26.976c14.874 0 25.158-3.096 30.85-9.29 5.691-6.194 8.538-13.763 8.538-22.708 0-5.213-1.065-9.996-3.193-14.349zm-16.824 28.913c-3.78 3.349-10.164 5.023-19.156 5.023h-27.191V261.45h26.904c6.313 0 10.642.311 12.986.933 3.634 1.004 6.565 3.073 8.788 6.206 2.225 3.133 3.337 6.9 3.337 11.3 0 6.074-1.89 10.786-5.668 14.133zm55.674-44.983L225.99 354.217h14.78l11.55-31.855h43.98l12.268 31.855h15.856L281.377 249.04h-14.994zm-10.044 61.987l11.55-30.85a134.002 134.002 0 0 0 5.668-20.09c1.626 5.693 4.113 12.963 7.462 21.811l10.977 29.129h-35.657zm142.269.574c-1.914-1.722-4.712-3.468-8.394-5.238 10.091-1.387 17.552-4.638 22.384-9.757 4.831-5.117 7.246-11.408 7.246-18.868 0-5.788-1.46-11.073-4.376-15.856-2.918-4.783-6.816-8.119-11.695-10.009-4.878-1.889-12.006-2.833-21.38-2.833H335.76v105.177h13.92V307.51h16.142c3.587 0 6.17.169 7.748.503 2.152.526 4.27 1.459 6.35 2.797 2.08 1.34 4.435 3.685 7.067 7.032 2.63 3.348 5.977 8.178 10.043 14.492l13.919 21.882h17.505L410.16 325.59c-3.636-5.596-7.486-10.26-11.551-13.99zm-19.013-16.143h-29.917v-34.796h33.29c7.795 0 13.499 1.603 17.111 4.807 3.61 3.205 5.417 7.295 5.417 12.269 0 3.396-.933 6.54-2.798 9.434-1.866 2.894-4.592 4.998-8.18 6.314-3.587 1.315-8.562 1.972-14.923 1.972zm64.428 58.759h13.918V249.04h-13.918v105.177zm113.069-44.661c-2.918-4.328-7.438-7.903-13.56-10.726-4.209-1.913-11.97-4.148-23.281-6.708-11.312-2.558-18.307-5.058-20.985-7.498-2.726-2.439-4.09-5.547-4.09-9.327 0-4.35 1.925-8.07 5.776-11.155 3.85-3.085 9.983-4.628 18.402-4.628 8.083 0 14.193 1.698 18.332 5.094 4.135 3.396 6.563 8.419 7.281 15.066l13.345-1.004c-.24-6.17-1.962-11.695-5.166-16.573-3.205-4.879-7.784-8.574-13.739-11.085-5.955-2.51-12.831-3.767-20.626-3.767-7.08 0-13.513 1.196-19.3 3.588-5.788 2.392-10.188 5.896-13.201 10.51-3.013 4.617-4.52 9.579-4.52 14.887 0 4.832 1.23 9.197 3.695 13.094 2.463 3.898 6.206 7.163 11.228 9.793 3.875 2.057 10.642 4.246 20.304 6.565 9.66 2.32 15.902 4.03 18.725 5.13 4.4 1.674 7.556 3.742 9.47 6.205 1.913 2.464 2.87 5.345 2.87 8.645 0 3.254-.993 6.255-2.977 9.004-1.986 2.751-5.011 4.915-9.076 6.493-4.066 1.58-8.753 2.368-14.061 2.368-5.98 0-11.36-1.04-16.143-3.121-4.784-2.08-8.311-4.807-10.583-8.179-2.272-3.372-3.719-7.688-4.34-12.95l-13.13 1.148c.191 7.032 2.117 13.333 5.776 18.905s8.705 9.746 15.138 12.52c6.432 2.773 14.408 4.16 23.926 4.16 7.51 0 14.265-1.375 20.269-4.125 6.001-2.75 10.605-6.6 13.81-11.551 3.205-4.95 4.808-10.223 4.808-15.819 0-5.644-1.46-10.63-4.377-14.96z" fill="#fff"/></svg>